PathFileType	4	(X/Y/Z)	 s02c0403.trc
DataRate	CameraRate	NumFrames	NumMarkers	Units	OrigDataRate	OrigDataStartFrame	OrigNumFrames
200	200	6	51	mm	200	501	2000
Frame#	Time	racr			lacr			c7			jug			rlel			rdr			llel			ldr			s2			lic			ric			lasi			rasi			rpsi			lpsi			rgt			lgt			rth1			rth2			rth3			rth4			rlfc			rmfc			rsh1			rsh2			rsh3			rsh4			rlmal			rmmal			rcal			rtoe			rmt5			rmt1			lth1			lth2			lth4			lth3			llfc			lmfc			lsh1			lsh2			lsh3			lsh4			llmal			lmmal			lcal			ltoe			lmt5			SBIKE			LBIKE			RBIKE			
		X1	Y1	Z1	X2	Y2	Z2	X3	Y3	Z3	X4	Y4	Z4	X5	Y5	Z5	X6	Y6	Z6	X7	Y7	Z7	X8	Y8	Z8	X9	Y9	Z9	X10	Y10	Z10	X11	Y11	Z11	X12	Y12	Z12	X13	Y13	Z13	X14	Y14	Z14	X15	Y15	Z15	X16	Y16	Z16	X17	Y17	Z17	X18	Y18	Z18	X19	Y19	Z19	X20	Y20	Z20	X21	Y21	Z21	X22	Y22	Z22	X23	Y23	Z23	X24	Y24	Z24	X25	Y25	Z25	X26	Y26	Z26	X27	Y27	Z27	X28	Y28	Z28	X29	Y29	Z29	X30	Y30	Z30	X31	Y31	Z31	X32	Y32	Z32	X33	Y33	Z33	X34	Y34	Z34	X35	Y35	Z35	X36	Y36	Z36	X37	Y37	Z37	X38	Y38	Z38	X39	Y39	Z39	X40	Y40	Z40	X41	Y41	Z41	X42	Y42	Z42	X43	Y43	Z43	X44	Y44	Z44	X45	Y45	Z45	X46	Y46	Z46	X47	Y47	Z47	X48	Y48	Z48	X49	Y49	Z49	X50	Y50	Z50	X51	Y51	Z51	
501	2.5050	519.511384	1302.591454	-146.511742	530.963639	1305.421409	-474.180348	516.363430	1329.818729	-316.203728	467.338261	1201.179178	-311.172718	557.655544	1043.241841	-55.530642	708.112336	891.051666	-120.057296	534.564150	1035.447584	-587.206866	703.522783	898.423105	-502.672115	4.561387	1125.263132	-310.102386	143.942956	1094.504055	-458.008939	126.969073	1108.340540	-172.929013	188.431930	1059.190759	-431.695220	180.134815	1088.072081	-205.726226	18.130046	1142.934492	-280.953714	NaN	NaN	NaN	99.304058	1037.461676	-127.721109	82.829821	1006.098952	-489.547225	187.510761	1023.732354	-127.571982	274.348832	1014.656838	-138.757361	347.561351	976.089933	-116.289312	282.715934	1037.291597	-168.489683	470.718517	891.431497	-152.201415	460.574678	871.708372	-262.839439	449.495509	781.431727	-134.487696	427.479600	695.967865	-152.975647	374.282846	629.472519	-144.690465	441.673191	691.766088	-189.513612	310.929669	526.168048	-148.395372	318.152571	546.258938	-229.543238	236.034951	475.856473	-190.661432	521.232925	472.322031	-187.163665	413.267379	453.807210	-128.790251	439.793511	468.995504	-237.553351	179.012315	902.435907	-509.061264	242.057451	842.242491	-507.435550	271.283325	860.170548	-495.156577	265.386255	756.231075	-504.774540	313.213961	668.165223	-482.399043	315.981987	639.121723	-379.111886	264.885532	574.539969	-502.385555	238.409707	493.488101	-485.770420	172.711683	431.899127	-488.170738	256.973287	485.536369	-450.105159	102.256718	350.595502	-469.730594	121.316955	342.443978	-394.256799	25.319324	324.960859	-428.764899	279.265427	192.564482	-442.413198	171.702629	216.053361	-500.272350	-126.968180	871.631320	-308.398261	37.151763	86.375685	-514.187552	33.806778	83.315473	-114.151251	
502	2.5100	523.202650	1299.893750	-146.509018	534.501276	1302.755201	-473.705050	519.937424	1326.923071	-316.105175	470.147324	1198.422918	-311.078132	557.289859	1041.039932	-53.820826	707.830277	890.797984	-119.932210	534.323340	1033.341508	-588.525518	703.238657	898.163994	-502.709312	7.401399	1126.347648	-314.881302	145.379045	1094.485914	-457.861404	128.079645	1108.492881	-173.090661	189.294108	1058.806969	-431.518357	181.050120	1087.772230	-205.878964	19.636185	1144.706575	-280.771817	NaN	NaN	NaN	99.455452	1038.141949	-127.356572	83.276725	1006.963076	-489.488811	187.494178	1024.742930	-127.630739	274.159839	1015.143270	-138.787755	347.232514	976.530715	-116.234311	282.693252	1037.864202	-168.701785	470.179340	891.222722	-151.793408	460.043504	871.643764	-262.459641	448.400487	781.388886	-134.139439	426.081491	695.982826	-152.748625	372.516407	629.675687	-144.524892	440.239008	691.733711	-189.285885	308.615166	526.676286	-148.450245	315.737825	546.965466	-229.497248	234.162792	475.972041	-190.465493	519.256207	474.657811	-187.016128	411.306010	455.273898	-128.620771	438.001816	470.569027	-237.499799	178.679607	902.589370	-509.130465	241.284903	841.909467	-507.396843	270.591527	859.592494	-495.138590	263.839448	755.719910	-504.769796	310.863577	667.244598	-482.237889	313.434402	638.064831	-378.938072	262.620134	573.310930	-502.273319	236.686856	492.132194	-485.903039	171.395956	430.197011	-488.378667	255.317732	484.251399	-450.237962	101.359448	348.110040	-469.841849	120.402647	340.353898	-394.383635	24.571018	321.456160	-428.915198	280.303984	192.506333	-442.449618	172.435872	214.492175	-500.357635	-126.950060	871.644291	-308.396834	37.152407	86.365678	-514.213844	33.290492	83.752536	-114.262935	
503	2.5150	526.854735	1297.003499	-146.547391	538.168690	1299.998735	-473.092456	523.527126	1323.895120	-315.904112	473.070462	1195.827134	-311.048807	556.897516	1038.815317	-52.363819	707.573998	890.534724	-119.845863	534.005269	1031.107449	-589.871445	702.987924	897.862141	-502.783047	9.183449	1127.815895	-315.014369	146.907895	1094.539930	-457.727860	129.240858	1108.585243	-173.074020	190.275750	1058.400220	-431.354177	182.052898	1087.425212	-205.870009	21.304198	1146.395229	-280.624212	NaN	NaN	NaN	99.542199	1039.163006	-126.714567	84.029422	1007.784189	-489.725588	187.551771	1025.827780	-127.677608	274.100499	1015.881679	-138.897372	346.994748	976.926454	-116.117420	282.771945	1038.394467	-168.903812	469.737235	890.909887	-151.344790	459.362160	871.599637	-261.581508	447.333777	781.204393	-133.803772	425.435428	696.516028	-151.431759	370.673936	630.017952	-144.525691	438.787213	691.704230	-189.077476	306.292725	527.117470	-148.548456	313.509940	547.460157	-229.557316	232.156958	475.912319	-190.548657	517.246882	476.860336	-186.937149	409.423797	456.643969	-128.442691	435.995621	472.082362	-237.013655	178.459549	902.735273	-509.150091	240.471766	841.435443	-507.327714	269.961996	858.906415	-495.034995	262.274696	755.138245	-504.741386	308.480284	666.206155	-482.088659	310.795781	636.888370	-378.905445	260.337509	572.075031	-502.338968	234.926944	490.616097	-485.984081	169.993312	428.222383	-488.530284	253.550342	482.866635	-450.380099	100.494832	345.566138	-469.982191	119.492584	338.040364	-394.499147	23.841574	317.853732	-429.113069	281.405132	192.478995	-442.424350	173.254368	212.860428	-500.418208	-126.922891	871.648824	-308.394123	37.142928	86.377392	-514.203543	33.800035	83.243829	-114.112363	
504	2.5200	530.454091	1294.050395	-146.566712	541.836934	1297.275320	-472.521508	527.073386	1320.924192	-315.767691	476.093323	1193.048397	-310.812749	556.679260	1036.539782	-50.836938	707.278101	890.283440	-119.845925	533.472139	1028.758413	-591.175524	702.809894	897.548512	-503.029090	11.090638	1129.202527	-315.255037	148.467470	1094.634833	-457.660436	130.501620	1108.799633	-173.186214	191.341387	1058.095419	-431.082905	183.134255	1087.082284	-205.862203	23.106348	1147.983463	-280.580786	NaN	NaN	NaN	99.905275	1039.774050	-126.864816	84.824687	1008.699632	-489.773486	187.694818	1026.812558	-127.757291	274.132317	1016.466505	-138.820064	346.830753	977.308925	-115.993915	282.965572	1038.882692	-169.008307	469.416596	890.677415	-150.804338	459.042274	871.371237	-261.055666	446.133353	781.009160	-133.581561	423.934107	696.411470	-151.340344	368.916547	630.201565	-144.407122	437.371653	691.662063	-188.907632	303.960612	527.658577	-148.595234	311.206203	548.111821	-229.610359	230.176030	475.926059	-190.646832	515.169195	479.111332	-186.771834	407.512092	457.910988	-128.355937	433.984146	473.693544	-236.909486	178.355316	902.817991	-509.143692	239.761086	840.955473	-507.002807	269.380695	858.089070	-494.662194	260.719739	754.363294	-504.627214	305.979080	664.956354	-481.918402	308.110706	635.463611	-378.898099	258.004186	570.700649	-502.408269	233.149967	489.110057	-486.164999	168.622499	426.217932	-488.725893	251.769328	481.392642	-450.499505	99.652379	342.880501	-470.125205	118.689870	335.014690	-394.115680	23.154431	314.057386	-429.283727	282.559007	192.414495	-442.301295	174.078578	211.228859	-500.492248	-126.900390	871.669736	-308.407676	37.158664	86.372061	-514.207571	33.817146	83.305589	-114.168255	
505	2.5250	534.159100	1290.998704	-146.569955	545.595087	1294.334833	-471.900592	530.732135	1317.934006	-315.537937	478.976528	1190.461331	-310.771394	556.438338	1034.168290	-49.420631	706.975394	890.001442	-119.875815	532.919563	1026.411321	-592.353919	702.687135	897.259819	-503.385354	13.001450	1130.518003	-315.375153	149.968271	1094.782188	-457.717506	131.807210	1108.889390	-173.295270	192.396065	1057.773730	-430.927785	184.300645	1086.809399	-205.812502	24.982861	1149.495873	-280.498000	NaN	NaN	NaN	100.305192	1040.448252	-126.745432	85.810329	1009.627894	-489.853812	187.945335	1027.612773	-127.878146	274.286500	1017.041756	-138.861189	346.787876	977.635822	-115.856892	283.280377	1039.343870	-169.116748	469.146108	890.377393	-150.128615	458.994439	870.996542	-260.789539	445.259694	780.805871	-133.161682	422.588374	696.226854	-151.214847	367.290918	630.372418	-144.259551	436.078989	691.447278	-188.576903	301.737933	528.220487	-148.719520	309.010905	548.770013	-229.644388	228.171236	476.125522	-190.796012	513.148800	481.239938	-186.554111	405.576088	459.265456	-128.257956	431.990437	475.231976	-236.701649	178.351892	902.811368	-509.145812	239.107207	840.318030	-506.868994	268.861966	857.113458	-494.462128	259.128716	753.552582	-504.567037	303.513002	663.652550	-481.737055	305.320866	634.101090	-378.828070	255.660350	569.086366	-502.336555	231.353721	487.324707	-486.102897	167.316136	424.114718	-488.926129	250.010922	479.799477	-450.610025	98.806905	340.133806	-470.282369	117.893283	332.588137	-394.190566	22.486951	310.295163	-429.485772	283.644350	192.345221	-442.346925	174.973035	209.568422	-500.584950	-126.866285	871.679727	-308.416529	37.156455	86.364745	-514.186630	33.291288	83.751415	-114.259434	
506	2.5300	537.845234	1287.892789	-146.547237	549.397395	1291.316687	-471.264311	534.314816	1314.896603	-315.245320	481.954503	1187.715206	-310.654480	556.263362	1031.676007	-48.126009	706.687196	889.732614	-119.906113	532.232100	1024.015713	-593.344656	702.559852	896.957440	-503.768942	13.841091	1131.762930	-304.127675	151.791291	1094.849568	-457.546211	133.199076	1109.095037	-173.357792	193.534460	1057.446658	-430.608832	185.618518	1086.603632	-205.634509	26.977783	1150.889353	-280.479651	NaN	NaN	NaN	100.847307	1041.209333	-126.544290	86.880303	1010.502911	-489.943637	188.260525	1028.191510	-127.966002	274.555141	1017.741152	-138.917197	346.837191	977.959181	-115.583583	283.678763	1039.800146	-169.169405	468.969330	890.009294	-149.413238	458.831935	870.833589	-260.102721	444.558043	780.597478	-132.676306	421.262463	696.131410	-151.075881	365.729739	630.658251	-144.183695	434.882227	691.400485	-188.295264	299.532558	528.971488	-148.790688	306.894338	549.436507	-229.686789	226.207984	476.422260	-190.941739	511.110099	483.293051	-186.341834	403.652987	460.618296	-128.054987	430.078155	476.844819	-236.535889	178.434440	902.683880	-509.111971	238.436842	839.501404	-506.672688	268.400018	856.036717	-494.291406	257.541987	752.530570	-504.410099	300.946031	662.279064	-481.547549	302.462941	632.605908	-378.779472	253.463764	567.503490	-502.444056	229.679844	485.611582	-486.290126	166.085552	421.779680	-489.020796	248.246106	478.136632	-450.543527	98.042783	337.329819	-470.398899	117.087498	330.089407	-394.252970	21.391753	306.214090	-429.396408	284.849165	192.304506	-442.228095	175.881251	207.909408	-500.662339	-126.844361	871.697934	-308.437618	37.156328	86.363105	-514.201822	33.820307	83.303002	-114.166526	
